<svg xmlns="http://www.w3.org/2000/svg">
  <symbol id="i-home" viewBox="0 0 24 24" fill="none" stroke="currentColor" stroke-width="1.5" stroke-linecap="round" stroke-linejoin="round">
    <path d="M4 10.5 12 4l8 6.5V20H4z"/><path d="M9.5 20v-6h5v6"/>
  </symbol>
  <symbol id="i-school" viewBox="0 0 24 24" fill="none" stroke="currentColor" stroke-width="1.5" stroke-linecap="round" stroke-linejoin="round">
    <path d="M4 10 12 6l8 4-8 4-8-4z"/><path d="M7 12.2V17c0 .4 2.2 2 5 2s5-1.6 5-2v-4.8"/><path d="M20 10v7"/>
  </symbol>
  <symbol id="i-office" viewBox="0 0 24 24" fill="none" stroke="currentColor" stroke-width="1.5" stroke-linecap="round" stroke-linejoin="round">
    <rect x="4" y="3.5" width="16" height="17" rx="1"/><path d="M8 8h2M14 8h2M8 12h2M14 12h2M8 16h2M11 20.5V16h2v4.5"/>
  </symbol>
  <symbol id="i-cycle" viewBox="0 0 24 24" fill="none" stroke="currentColor" stroke-width="1.5" stroke-linecap="round" stroke-linejoin="round">
    <path d="M20 12a8 8 0 1 1-2.2-5.5"/><path d="M20 5v5h-5"/>
  </symbol>
  <symbol id="i-once" viewBox="0 0 24 24" fill="none" stroke="currentColor" stroke-width="1.5" stroke-linecap="round" stroke-linejoin="round">
    <circle cx="12" cy="12" r="8"/><path d="m9 12 2.1 2.1L15.5 10"/>
  </symbol>
  <symbol id="i-window" viewBox="0 0 24 24" fill="none" stroke="currentColor" stroke-width="1.5" stroke-linecap="round" stroke-linejoin="round">
    <rect x="4" y="4" width="16" height="16" rx="1"/><path d="M12 4v16M4 12h16"/>
  </symbol>
  <symbol id="i-tools" viewBox="0 0 24 24" fill="none" stroke="currentColor" stroke-width="1.5" stroke-linecap="round" stroke-linejoin="round">
    <path d="M14.5 6.5 8 13l-2 5 5-2 6.5-6.5"/><path d="M15 6a2.4 2.4 0 1 1 3.4 3.4"/>
  </symbol>
  <symbol id="i-child" viewBox="0 0 24 24" fill="none" stroke="currentColor" stroke-width="1.5" stroke-linecap="round" stroke-linejoin="round">
    <circle cx="12" cy="8" r="3"/><path d="M6.5 20v-1.2C6.5 15.8 9 14 12 14s5.5 1.8 5.5 4.8V20"/>
  </symbol>
  <symbol id="i-teen" viewBox="0 0 24 24" fill="none" stroke="currentColor" stroke-width="1.5" stroke-linecap="round" stroke-linejoin="round">
    <circle cx="12" cy="7.5" r="2.6"/><path d="M6 20v-2.2C6 14.8 8.6 13 12 13s6 1.8 6 4.8V20"/><path d="M9 10.2c.7.8 1.8 1.3 3 1.3s2.3-.5 3-1.3"/>
  </symbol>
  <symbol id="i-adult" viewBox="0 0 24 24" fill="none" stroke="currentColor" stroke-width="1.5" stroke-linecap="round" stroke-linejoin="round">
    <circle cx="12" cy="8" r="3"/><path d="M5.5 20v-1.4C5.5 15.4 8.4 13.2 12 13.2s6.5 2.2 6.5 5.4V20"/>
  </symbol>
  <symbol id="i-book" viewBox="0 0 24 24" fill="none" stroke="currentColor" stroke-width="1.5" stroke-linecap="round" stroke-linejoin="round">
    <path d="M5 5.5A3.5 3.5 0 0 1 8.5 4H20v15H8.5A3.5 3.5 0 0 0 5 22.5z"/><path d="M5 5.5v17"/>
  </symbol>
  <symbol id="i-exam" viewBox="0 0 24 24" fill="none" stroke="currentColor" stroke-width="1.5" stroke-linecap="round" stroke-linejoin="round">
    <rect x="5" y="3.5" width="14" height="17" rx="1"/><path d="M8.5 8h7M8.5 12h7M8.5 16h4"/>
  </symbol>
  <symbol id="i-chat" viewBox="0 0 24 24" fill="none" stroke="currentColor" stroke-width="1.5" stroke-linecap="round" stroke-linejoin="round">
    <path d="M5 16.5 4 20l3.6-1.4A8 8 0 1 0 5 16.5z"/>
  </symbol>
  <symbol id="i-video" viewBox="0 0 24 24" fill="none" stroke="currentColor" stroke-width="1.5" stroke-linecap="round" stroke-linejoin="round">
    <rect x="3.5" y="6.5" width="12.5" height="11" rx="1.5"/><path d="m16 10 4.5-2.2v8.4L16 14"/>
  </symbol>
  <symbol id="i-pin" viewBox="0 0 24 24" fill="none" stroke="currentColor" stroke-width="1.5" stroke-linecap="round" stroke-linejoin="round">
    <path d="M12 21s7-6.2 7-11a7 7 0 1 0-14 0c0 4.8 7 11 7 11z"/><circle cx="12" cy="10" r="2.2"/>
  </symbol>
  <symbol id="i-arrow" viewBox="0 0 24 24" fill="none" stroke="currentColor" stroke-width="1.5" stroke-linecap="round" stroke-linejoin="round">
    <path d="M4 12h16M14 6l6 6-6 6"/>
  </symbol>
  <symbol id="i-phone" viewBox="0 0 24 24" fill="none" stroke="currentColor" stroke-width="1.5" stroke-linecap="round" stroke-linejoin="round">
    <path d="M7 4.5h3l1.2 3-2 1.6a12 12 0 0 0 5.7 5.7l1.6-2 3 1.2v3A2 2 0 0 1 17.6 19 14.5 14.5 0 0 1 5 6.4 2 2 0 0 1 7 4.5z"/>
  </symbol>
  <symbol id="i-mail" viewBox="0 0 24 24" fill="none" stroke="currentColor" stroke-width="1.5" stroke-linecap="round" stroke-linejoin="round">
    <rect x="3.5" y="6" width="17" height="12" rx="1.5"/><path d="m5 8 7 5 7-5"/>
  </symbol>
  <symbol id="i-whatsapp" viewBox="0 0 24 24" fill="none" stroke="currentColor" stroke-width="1.5" stroke-linecap="round" stroke-linejoin="round">
    <path d="M5.4 18.6 5 21l2.5-.5A8.5 8.5 0 1 0 5.4 18.6z"/><path d="M9 10.2c.2 2.4 2.6 4.6 4.8 5 .6.1 1.2 0 1.6-.4l.7-1c.2-.3 0-.7-.3-.8l-1.5-.6c-.3-.1-.6 0-.8.2l-.4.5c-1.4-.6-2.2-1.5-2.6-2.8l.5-.4c.2-.2.3-.5.2-.8l-.6-1.5c-.1-.3-.5-.5-.8-.3l-1 .7c-.4.4-.5 1-.4 1.6z"/>
  </symbol>
  <symbol id="i-instagram" viewBox="0 0 24 24" fill="none" stroke="currentColor" stroke-width="1.5" stroke-linecap="round" stroke-linejoin="round">
    <rect x="4" y="4" width="16" height="16" rx="4"/><circle cx="12" cy="12" r="3.4"/><circle cx="17.2" cy="6.8" r="0.8" fill="currentColor" stroke="none"/>
  </symbol>
  <symbol id="i-facebook" viewBox="0 0 24 24" fill="none" stroke="currentColor" stroke-width="1.5" stroke-linecap="round" stroke-linejoin="round">
    <path d="M14 9h2.5V6h-2.5A3.5 3.5 0 0 0 10.5 9.5V12H8v3h2.5v7h3v-7H16l.5-3h-3v-2A1 1 0 0 1 14 9z"/>
  </symbol>
  <symbol id="i-person" viewBox="0 0 24 24" fill="none" stroke="currentColor" stroke-width="1.5" stroke-linecap="round" stroke-linejoin="round">
    <circle cx="12" cy="8" r="3"/><path d="M5.5 19.5v-1.2C5.5 15.4 8.4 13.2 12 13.2s6.5 2.2 6.5 5.1v1.2"/>
  </symbol>
  <symbol id="i-plus" viewBox="0 0 24 24" fill="none" stroke="currentColor" stroke-width="1.5" stroke-linecap="round">
    <path d="M12 6v12M6 12h12"/>
  </symbol>
  <symbol id="i-check" viewBox="0 0 24 24" fill="none" stroke="currentColor" stroke-width="1.5" stroke-linecap="round" stroke-linejoin="round">
    <path d="m5 12 5 5 9-10"/>
  </symbol>
</svg>
